[img]http://img841.imageshack.us/img841/4595/wakaflockahardinthepain.jpg[/img]
[img]http://img840.imageshack.us/img840/4595/wakaflockahardinthepain.jpg[/img]

[code]General
Complete name                    : Waka Flocka - Hard In The Paint [KingPinVideos].mpg
Format                           : MPEG-PS
File size                        : 88.3 MiB
Duration                         : 4mn 43s
Overall bit rate                 : 2 615 Kbps
Writing library                  : encoded by TMPGEnc 4.0 XPress Version. 4.7.4.299

Video
ID                               : 224 (0xE0)
Format                           : MPEG Video
Format version                   : Version 1
Format settings, BVOP            : Yes
Format settings, Matrix          : Default
Duration                         : 4mn 43s
Bit rate mode                    : Variable
Bit rate                         : 2 383 Kbps
Nominal bit rate                 : 2 500 Kbps
Width                            : 384 pixels
Height                           : 208 pixels
Display aspect ratio             : 16:9
Frame rate                       : 29.970 fps
Resolution                       : 8 bits
Scan type                        : Progressive
Bits/(Pixel*Frame)               : 0.996
Stream size                      : 80.5 MiB (91%)
Writing library                  : TMPGEnc XPress 4.7.4.299

Audio
ID                               : 192 (0xC0)
Format                           : MPEG Audio
Format version                   : Version 1
Format profile                   : Layer 2
Duration                         : 4mn 43s
Bit rate mode                    : Constant
Bit rate                         : 128 Kbps
Channel(s)                       : 2 channels
Sampling rate                    : 48.0 KHz
Stream size                      : 4.32 MiB (5%)

[/code]